<svg width="18" height="18" viewBox="0 0 18 18" fill="none" xmlns="http://www.w3.org/2000/svg">
<g id="Group">
<path id="Vector" d="M14.9588 11.4455C15.9435 12.4302 15.9435 14.0267 14.9588 15.0114C13.9741 15.9961 12.3775 15.9961 11.3928 15.0114C10.4081 14.0267 10.4081 12.4302 11.3928 11.4455C12.3775 10.4608 13.9741 10.4608 14.9588 11.4455" stroke="#475569" stroke-width="1.5" stroke-linecap="round" stroke-linejoin="round"/>
<path id="Vector_2" d="M6.55447 3.04102C7.53918 4.02572 7.53918 5.62225 6.55447 6.60696C5.56977 7.59167 3.97324 7.59167 2.98853 6.60696C2.00382 5.62226 2.00382 4.02573 2.98853 3.04102C3.97323 2.05631 5.56976 2.05631 6.55447 3.04102" stroke="#475569" stroke-width="1.5" stroke-linecap="round" stroke-linejoin="round"/>
<path id="Vector_3" d="M3.23919 10.9058H6.31269C6.77694 10.9058 7.15344 11.2823 7.15344 11.7465V14.82C7.15344 15.2843 6.77694 15.6608 6.31269 15.6608H3.23919C2.77494 15.6608 2.39844 15.2843 2.39844 14.82V11.7465C2.39844 11.2815 2.77494 10.9058 3.23919 10.9058V10.9058Z" stroke="#475569" stroke-width="1.5" stroke-linecap="round" stroke-linejoin="round"/>
<path id="Vector_4" d="M12.0907 2.25H15.1642C15.6285 2.25 16.005 2.6265 16.005 3.09075V6.16425C16.005 6.6285 15.6285 7.005 15.1642 7.005H12.0907C11.6265 7.005 11.25 6.6285 11.25 6.16425V3.09075C11.25 2.62575 11.6265 2.25 12.0907 2.25V2.25Z" stroke="#475569" stroke-width="1.5" stroke-linecap="round" stroke-linejoin="round"/>
</g>
</svg>
