<svg width="16" height="16" viewBox="0 0 16 16" fill="none" xmlns="http://www.w3.org/2000/svg">
<path d="M8.00001 12.6667C7.43867 12.6667 6.87667 12.548 6.33067 12.3367" stroke="#64748B" stroke-width="1.5" stroke-linecap="round" stroke-linejoin="round"/>
<path d="M13.9213 8.312C12.66 10.6447 10.33 12.6667 8 12.6667" stroke="#64748B" stroke-width="1.5" stroke-linecap="round" stroke-linejoin="round"/>
<path d="M12.7193 5.94733C13.18 6.48666 13.5893 7.07466 13.9213 7.68866C14.026 7.88266 14.026 8.11799 13.9213 8.31199" stroke="#64748B" stroke-width="1.5" stroke-linecap="round" stroke-linejoin="round"/>
<path d="M3.33333 12.6667L12.6667 3.33333" stroke="#64748B" stroke-width="1.5" stroke-linecap="round" stroke-linejoin="round"/>
<path d="M6.51533 9.48467C5.69533 8.66467 5.69533 7.33467 6.51533 6.51467C7.33533 5.69467 8.66533 5.69467 9.48533 6.51467" stroke="#64748B" stroke-width="1.5" stroke-linecap="round" stroke-linejoin="round"/>
<path d="M11.3627 4.63733C10.3313 3.83933 9.16533 3.33333 8 3.33333C5.67 3.33333 3.34 5.35533 2.07867 7.68866C1.974 7.88266 1.974 8.118 2.07867 8.312C2.70933 9.478 3.60667 10.566 4.63733 11.3633" stroke="#64748B" stroke-width="1.5" stroke-linecap="round" stroke-linejoin="round"/>
</svg>
