<svg width="16" height="16" viewBox="0 0 16 16" fill="none" xmlns="http://www.w3.org/2000/svg">
<g id="Group">
<g id="Group_2">
<path id="Path" d="M5.41421 3.25247C6.19526 4.03352 6.19526 5.29985 5.41421 6.0809C4.63316 6.86195 3.36683 6.86195 2.58579 6.0809C1.80474 5.29985 1.80474 4.03352 2.58579 3.25247C3.36683 2.47143 4.63316 2.47143 5.41421 3.25247" stroke="#0F172A" stroke-width="1.5" stroke-linecap="round" stroke-linejoin="round"/>
<path id="Path_2" d="M13.3333 4.66671H6" stroke="#0F172A" stroke-width="1.5" stroke-linecap="round" stroke-linejoin="round"/>
<path id="Path_3" d="M13.4142 9.91916C14.1953 10.7002 14.1953 11.9665 13.4142 12.7476C12.6332 13.5286 11.3668 13.5286 10.5858 12.7476C9.80474 11.9665 9.80474 10.7002 10.5858 9.91916C11.3668 9.13811 12.6332 9.13811 13.4142 9.91916" stroke="#0F172A" stroke-width="1.5" stroke-linecap="round" stroke-linejoin="round"/>
<path id="Path_4" d="M2.66699 11.3333H10.0003" stroke="#0F172A" stroke-width="1.5" stroke-linecap="round" stroke-linejoin="round"/>
</g>
</g>
</svg>
