<svg width="16" height="17" viewBox="0 0 16 17" fill="none" xmlns="http://www.w3.org/2000/svg">
<g id="Group">
<g id="Group_2">
<path id="Path" d="M9.5999 16H6.3999" stroke="black" stroke-width="1.5" stroke-linecap="round" stroke-linejoin="round"/>
<path id="Path_2" fill-rule="evenodd" clip-rule="evenodd" d="M13 6.032V6C13 3.239 10.761 1 8 1C5.239 1 3 3.239 3 6V6.032V8.504C3 8.828 2.817 9.123 2.528 9.268L2.025 9.519C1.397 9.834 1 10.476 1 11.178C1 12.202 1.83 13.032 2.854 13.032H13.146C14.17 13.032 15 12.202 15 11.178C15 10.476 14.603 9.834 13.975 9.52L13.472 9.269C13.183 9.123 13 8.828 13 8.504V6.032Z" fill="white" stroke="black" stroke-width="1.5" stroke-linecap="round" stroke-linejoin="round"/>
</g>
</g>
</svg>
