<svg width="18" height="18" viewBox="0 0 18 18" fill="none" xmlns="http://www.w3.org/2000/svg">
<g id="Group">
<g id="Group_2">
<path id="Path" fill-rule="evenodd" clip-rule="evenodd" d="M6.9187 4.839V4.839C6.9187 3.69 7.8502 2.75775 8.99995 2.75775V2.75775C10.149 2.75775 11.0812 3.68925 11.0812 4.839V4.839C11.0812 5.988 10.1497 6.92025 8.99995 6.92025V6.92025C7.8502 6.91875 6.9187 5.98725 6.9187 4.839Z" stroke="#757575" stroke-width="1.5" stroke-linecap="round" stroke-linejoin="round"/>
<path id="Path_2" fill-rule="evenodd" clip-rule="evenodd" d="M1.875 13.161V13.161C1.875 12.012 2.8065 11.0797 3.95625 11.0797V11.0797C5.10525 11.0797 6.0375 12.0112 6.0375 13.161V13.161C6.03675 14.31 5.106 15.2422 3.95625 15.2422V15.2422C2.8065 15.2422 1.875 14.3107 1.875 13.161Z" stroke="#757575" stroke-width="1.5" stroke-linecap="round" stroke-linejoin="round"/>
<path id="Path_3" fill-rule="evenodd" clip-rule="evenodd" d="M11.9631 13.161V13.161C11.9631 12.012 12.8946 11.0797 14.0444 11.0797V11.0797C15.1934 11.0797 16.1256 12.0112 16.1256 13.161V13.161C16.1256 14.31 15.1941 15.2422 14.0444 15.2422V15.2422C12.8939 15.2422 11.9631 14.3107 11.9631 13.161H11.9631Z" stroke="#757575" stroke-width="1.5" stroke-linecap="round" stroke-linejoin="round"/>
<path id="Path_4" d="M6.36761 8.94L4.86011 11.295" stroke="#757575" stroke-width="1.5" stroke-linecap="round" stroke-linejoin="round"/>
<path id="Path_5" d="M10.125 6.58501L11.6325 8.94001" stroke="#757575" stroke-width="1.5" stroke-linecap="round" stroke-linejoin="round"/>
<path id="Path_6" d="M11.9625 13.1625H9" stroke="#757575" stroke-width="1.5" stroke-linecap="round" stroke-linejoin="round"/>
</g>
</g>
</svg>
