<svg width="18" height="18" viewBox="0 0 18 18" fill="none" xmlns="http://www.w3.org/2000/svg">
<g id="Group">
<path id="Path" fill-rule="evenodd" clip-rule="evenodd" d="M9.53399 2.9975C9.81539 2.9975 10.0665 3.17418 10.1616 3.43901L10.5004 4.38274C10.5542 4.53115 10.6586 4.65584 10.7952 4.73489L11.8003 5.31513C11.9368 5.39388 12.0967 5.42176 12.2518 5.39383L13.2389 5.21575C13.5161 5.16535 13.795 5.29455 13.9358 5.53856L14.4694 6.45894C14.6106 6.70228 14.5839 7.00805 14.4027 7.22326L13.7551 7.98891C13.6531 8.1093 13.5971 8.26196 13.597 8.41976V9.58024C13.5971 9.73803 13.6531 9.89069 13.7551 10.0111L14.4027 10.7767C14.5839 10.9919 14.6106 11.2977 14.4694 11.5411L13.9358 12.4614C13.7951 12.7052 13.5165 12.8343 13.2395 12.7842L12.2525 12.6062C12.0974 12.5782 11.9374 12.6061 11.8009 12.6849L10.7959 13.2651C10.6592 13.3442 10.5548 13.4688 10.5011 13.6173L10.1623 14.561C10.0671 14.826 9.81563 15.0027 9.53399 15.0025H8.46688C8.18549 15.0025 7.9344 14.8258 7.83929 14.561L7.50048 13.6173C7.44672 13.469 7.34262 13.3444 7.20636 13.2651L6.20061 12.6849C6.06412 12.6061 5.90416 12.5782 5.74908 12.6062L4.76201 12.7842C4.48483 12.8346 4.20587 12.7054 4.06505 12.4614L3.53149 11.5411C3.39029 11.2977 3.41698 10.9919 3.59819 10.7767L4.24579 10.0111C4.34779 9.89069 4.4038 9.73803 4.40386 9.58024V8.41976C4.4038 8.26196 4.34779 8.1093 4.24579 7.98891L3.60486 7.22326C3.42365 7.00805 3.39696 6.70228 3.53816 6.45894L4.07172 5.53856C4.21245 5.29482 4.49105 5.16566 4.76801 5.21575L5.75509 5.39383C5.91017 5.42176 6.07012 5.39388 6.20661 5.31513L7.21236 4.73489C7.34863 4.65558 7.45272 4.53095 7.50648 4.38274L7.84529 3.43901C7.93965 3.17624 8.1877 3.00006 8.46688 2.9975H9.53399Z" stroke="#0F172A" stroke-width="1.5" stroke-linecap="round" stroke-linejoin="round"/>
<circle id="Oval" cx="9.00011" cy="8.99999" r="1.8341" stroke="#0F172A" stroke-width="1.5" stroke-linecap="round" stroke-linejoin="round"/>
</g>
</svg>
